<svg enable-background="new 0 0 511.998 511.998" height="100%" viewBox="0 0 511.998 511.998" width="100%" xmlns="http://www.w3.org/2000/svg"><g><path d="m255.999 90c16.071 0 30.193-8.474 38.155-21.183 25.664 5.229 50.263 15.818 71.728 30.945 2.626 1.851 5.642 2.74 8.628 2.74 4.713 0 9.353-2.215 12.275-6.36 4.772-6.771 3.151-16.129-3.62-20.901-24.697-17.406-52.986-29.614-82.509-35.707-2.708-22.243-21.695-39.534-44.657-39.534-24.813 0-45 20.187-45 45s20.187 45 45 45z"/><path d="m255.999 421.998c-16.071 0-30.193 8.475-38.155 21.183-25.663-5.229-50.263-15.817-71.729-30.944-6.771-4.772-16.129-3.15-20.902 3.62-4.772 6.771-3.151 16.13 3.621 20.901 24.697 17.405 52.986 29.613 82.508 35.706 2.707 22.243 21.694 39.534 44.656 39.534 24.813 0 45-20.186 45-45 .001-24.813-20.186-45-44.999-45z"/><path d="m438.729 316.498c-24.813 0-45 20.187-45 45 0 7.621 1.911 14.802 5.269 21.099-17.425 19.64-38.875 35.667-62.604 46.696-7.513 3.492-10.772 12.412-7.28 19.925 2.541 5.467 7.956 8.682 13.612 8.682 2.116 0 4.267-.451 6.313-1.401 27.289-12.684 51.963-31.08 72.047-53.607 5.421 2.319 11.384 3.607 17.643 3.607 24.813 0 45-20.186 45-45s-20.187-45.001-45-45.001z"/><path d="m74.79 316.536c-6.5-19.446-9.791-39.77-9.791-60.537 0-5.625.253-11.351.753-17.019.728-8.252-5.372-15.532-13.625-16.26-8.252-.725-15.532 5.373-16.259 13.625-.577 6.54-.869 13.152-.869 19.653 0 23.854 3.762 47.213 11.188 69.588-10.875 8.222-17.918 21.258-17.918 35.911 0 24.814 20.187 45 45 45s45-20.186 45-45c0-24.303-19.369-44.153-43.479-44.961z"/><path d="m437.197 195.461c6.5 19.44 9.802 39.751 9.802 60.538 0 8.284 6.716 15 15 15s15-6.716 15-15c0-23.872-3.771-47.216-11.196-69.581 10.88-8.222 17.926-21.261 17.926-35.918 0-24.813-20.187-45-45-45s-45 20.187-45 45c0 24.3 19.363 44.148 43.468 44.961z"/><path d="m175.604 82.705c7.513-3.492 10.772-12.412 7.28-19.925-3.492-7.512-12.412-10.771-19.925-7.28-27.29 12.685-51.963 31.081-72.047 53.607-5.421-2.319-11.384-3.607-17.643-3.607-24.813 0-45 20.187-45 45s20.187 45 45 45 45-20.186 45-45c0-7.621-1.911-14.802-5.268-21.099 17.423-19.64 38.873-35.667 62.603-46.696z"/><path d="m357.186 221.224c0-55.795-45.393-101.188-101.187-101.188s-101.188 45.393-101.188 101.188c0 32.81 15.936 53.189 28.741 69.563 3.151 4.029 6.033 7.723 8.381 11.202h49.065v-54.402l-18.311-14.649c-6.469-5.176-7.518-14.615-2.342-21.084 5.175-6.468 14.614-7.517 21.083-2.342l14.57 11.656 14.57-11.656c6.468-5.177 15.908-4.127 21.084 2.342 5.175 6.469 4.126 15.908-2.342 21.084l-18.311 14.649v54.402h49.065c2.348-3.48 5.23-7.173 8.381-11.202 12.805-16.375 28.741-36.754 28.741-69.563z"/><path d="m197.937 376.992c0 8.284 6.716 15 15 15h86.141c8.284 0 15-6.716 15-15v-45.004h-116.141z"/></g></svg>