<?xml version="1.0" standalone="no"?>
<!DOCTYPE svg PUBLIC "-//W3C//DTD SVG 20010904//EN"
 "http://www.w3.org/TR/2001/REC-SVG-20010904/DTD/svg10.dtd">
<svg version="1.0" xmlns="http://www.w3.org/2000/svg"
 width="306.000000pt" height="306.000000pt" viewBox="0 0 306.000000 306.000000"
 preserveAspectRatio="xMidYMid meet">
<metadata>
Created by potrace 1.14, written by Peter Selinger 2001-2017
</metadata>
<g transform="translate(0.000000,306.000000) scale(0.100000,-0.100000)"
fill="#000000" stroke="none">
<path d="M454 3049 c-32 -9 -78 -59 -130 -139 -15 -25 -47 -70 -70 -100 -59
-77 -86 -150 -87 -232 0 -58 5 -77 36 -140 21 -40 62 -100 92 -133 30 -33 55
-63 55 -67 0 -4 -18 -54 -41 -110 -46 -115 -53 -174 -32 -263 21 -85 19 -177
-6 -272 -12 -45 -21 -90 -21 -100 0 -27 -85 -218 -114 -256 -15 -20 -27 -52
-31 -85 -6 -51 -5 -55 30 -93 19 -22 50 -63 67 -91 35 -56 106 -108 149 -108
15 0 40 5 54 10 22 9 29 7 44 -11 25 -32 82 -19 116 24 45 59 60 114 65 227 1
23 2 23 11 6 10 -17 8 -66 -5 -124 -9 -41 -54 -109 -96 -145 l-41 -34 27 -18
c15 -9 43 -19 63 -22 45 -6 63 8 125 101 42 63 46 73 46 130 0 44 6 74 23 106
19 38 29 46 75 62 30 9 72 33 93 53 43 38 51 41 67 22 15 -18 -17 -101 -143
-377 -135 -296 -236 -545 -238 -589 -2 -36 8 -46 73 -71 14 -6 32 -15 42 -22
13 -10 23 -7 55 15 21 15 75 54 121 86 147 103 130 105 -28 3 -47 -30 -96 -64
-110 -75 -14 -12 -7 -3 15 19 22 22 87 77 145 123 58 45 109 90 114 99 8 14 7
15 -5 6 -213 -162 -226 -171 -194 -135 11 13 63 58 115 101 52 43 106 88 120
100 l25 21 -30 -15 c-16 -8 -74 -48 -129 -90 -54 -42 -101 -76 -104 -76 -13 0
128 124 198 175 42 29 84 63 95 75 25 27 -169 -102 -215 -143 -31 -29 -31 -27
5 12 22 24 75 68 117 98 117 83 108 93 -12 13 -87 -58 -59 -31 53 50 53 40 87
71 87 82 0 24 -11 23 -73 -8 -68 -34 -51 -20 51 44 84 53 97 57 63 20 -19 -20
-18 -54 1 -42 6 4 6 9 -2 14 -9 6 -7 11 9 20 12 6 42 42 66 81 25 38 47 69 49
69 5 0 -43 -85 -154 -275 -86 -148 -166 -314 -204 -423 -38 -110 -43 -136 -25
-130 6 2 26 43 44 90 51 137 126 279 261 499 241 391 285 506 281 741 -2 104
0 123 10 105 16 -29 16 -22 -2 36 -20 65 -3 59 28 -10 40 -92 47 -127 48 -231
1 -154 -68 -333 -235 -615 -122 -205 -246 -459 -246 -500 0 -11 21 28 55 103
8 19 26 49 39 65 24 29 25 29 20 5 -5 -23 -5 -24 7 -5 23 39 63 75 93 84 59
19 88 17 102 -5 13 -18 11 -23 -17 -50 -19 -18 -28 -22 -24 -11 13 32 -3 17
-35 -33 -18 -28 -35 -48 -38 -46 -9 10 53 100 76 112 33 16 38 24 15 24 -30 0
-64 -39 -113 -130 -24 -44 -45 -78 -47 -76 -6 6 37 126 51 146 9 13 9 13 -6 2
-9 -8 -22 -30 -29 -50 -14 -42 -78 -147 -85 -139 -3 3 8 33 25 68 17 35 29 64
28 66 -2 1 -23 -32 -47 -73 -25 -41 -56 -82 -70 -91 -61 -39 -131 -95 -126
-100 2 -3 29 8 58 25 29 17 113 58 187 91 170 78 322 164 434 247 48 36 92 64
99 62 6 -2 -18 -24 -53 -48 -35 -24 -80 -54 -99 -67 -49 -34 -49 -36 -9 -28
31 6 39 3 53 -16 25 -36 19 -44 -8 -12 -28 32 -44 26 -25 -9 12 -22 11 -22
-24 5 l-36 27 -47 -30 c-55 -34 -53 -39 4 -10 22 11 46 18 54 15 17 -7 52 -64
44 -72 -3 -4 -6 -2 -6 3 0 14 -39 54 -52 54 -6 0 -2 -10 9 -22 11 -13 23 -30
27 -38 4 -8 -1 -6 -11 6 -31 35 -54 44 -77 29 -12 -7 -38 -16 -60 -20 -21 -3
-36 -9 -32 -12 5 -5 74 9 110 23 10 4 16 1 16 -7 0 -7 8 -21 18 -32 15 -17 12
-16 -22 4 l-39 22 12 -21 c6 -12 17 -22 23 -22 6 0 9 -3 5 -6 -3 -3 -16 1 -29
10 -12 9 -29 16 -38 16 -9 0 -5 -7 11 -17 14 -9 32 -25 39 -37 l13 -21 -24 21
c-30 27 -69 47 -69 36 0 -4 14 -18 30 -30 17 -13 30 -27 30 -33 0 -5 -15 1
-33 15 -19 15 -42 26 -53 26 -18 -1 -18 -1 1 -12 27 -15 65 -50 65 -59 0 -5
-20 5 -45 22 -25 17 -51 29 -58 26 -6 -2 4 -11 25 -21 38 -18 79 -56 60 -56
-6 0 -14 5 -18 11 -9 15 -84 49 -109 49 -12 0 -2 -9 25 -21 49 -22 80 -46 80
-62 0 -6 -12 1 -27 14 -16 14 -41 31 -58 38 -26 10 -23 6 20 -33 28 -25 45
-45 38 -46 -6 0 -13 4 -15 8 -6 14 -73 60 -98 66 -22 6 -21 5 5 -10 46 -26 65
-45 65 -68 l-1 -21 -17 21 c-20 23 -73 54 -94 54 -7 0 3 -8 22 -18 21 -10 41
-30 49 -50 10 -20 22 -32 35 -33 12 0 29 -2 38 -4 30 -5 87 15 313 110 142 60
116 35 -50 -49 -109 -54 -125 -65 -97 -65 17 -1 32 4 32 10 0 6 7 9 15 5 8 -3
15 -2 15 3 0 7 101 61 173 93 33 14 8 -9 -28 -27 -20 -9 -39 -23 -42 -31 -6
-16 13 -44 30 -44 7 0 7 4 -1 12 -17 17 -15 29 3 22 8 -4 27 1 41 11 37 24 40
12 4 -18 -40 -34 -38 -41 6 -22 45 19 48 19 40 -1 -6 -14 2 -16 61 -11 38 3
76 8 86 12 10 4 17 3 17 -4 0 -6 11 -11 24 -11 29 0 47 39 50 105 0 25 5 45
10 45 9 0 2 -86 -10 -128 -6 -20 -3 -22 31 -22 33 0 36 2 30 21 -5 14 -3 19 3
15 7 -4 8 4 1 26 -5 18 -12 51 -15 73 -4 22 -12 55 -20 74 -12 29 -12 32 0 22
8 -7 25 -51 37 -99 24 -91 52 -132 89 -132 20 0 19 2 -9 37 -23 30 -33 57 -45
128 -16 98 -34 124 -85 126 -60 1 -110 19 -54 19 53 0 129 -28 141 -52 6 -13
16 -58 22 -102 16 -119 52 -155 157 -155 44 0 68 13 30 17 -12 1 -35 6 -52 12
l-30 10 28 -4 28 -3 -24 26 c-48 51 -48 53 -29 226 9 82 4 115 -25 147 -14 15
-13 16 13 9 18 -5 28 -15 31 -31 2 -13 6 -26 10 -29 3 -3 3 4 0 16 -9 37 9 26
28 -17 18 -39 18 -45 1 -133 -23 -121 -7 -163 69 -181 17 -4 37 -13 45 -19 10
-8 36 -10 75 -6 44 4 51 6 25 9 -19 1 -39 2 -43 1 -4 -1 -33 11 -64 26 -58 29
-96 73 -86 101 5 11 10 7 21 -14 25 -48 68 -80 117 -88 17 -2 50 -8 75 -11 25
-4 67 -19 94 -32 60 -30 91 -37 114 -24 14 9 12 10 -11 11 -15 0 -50 11 -77
25 -27 13 -88 33 -136 44 -48 11 -99 28 -113 38 -37 28 -65 87 -55 121 5 21 8
23 11 9 3 -9 23 -27 45 -38 35 -18 60 -21 167 -21 145 -1 179 9 231 68 28 33
32 42 27 81 -4 39 -24 79 -34 69 -2 -2 1 -22 8 -45 11 -37 10 -43 -12 -75 -32
-48 -53 -57 -136 -60 -116 -4 -210 12 -262 45 -58 36 -49 38 14 3 39 -23 61
-27 139 -29 129 -4 184 8 219 45 31 35 35 70 8 94 -23 21 -51 11 -51 -20 0
-29 7 -30 33 -7 18 17 19 17 15 -11 -2 -23 -10 -32 -36 -40 -18 -7 -30 -15
-26 -19 9 -9 -9 -10 -111 -8 -126 3 -173 39 -225 171 -35 88 -37 90 -155 88
-102 -2 -102 -2 -128 27 -31 35 -101 164 -94 172 3 3 30 -33 60 -79 29 -45 61
-89 70 -97 13 -10 39 -12 115 -7 121 8 129 3 172 -105 18 -44 45 -92 58 -105
29 -26 100 -45 165 -43 l42 1 -40 8 c-22 4 -58 11 -80 14 -44 7 -80 27 -94 53
-5 10 -19 56 -31 103 -12 47 -29 92 -37 100 -11 12 -40 15 -133 15 -87 0 -122
4 -132 14 -11 11 -9 12 12 6 38 -12 63 -13 85 -4 17 7 16 8 -8 8 -34 1 -94 26
-121 49 -25 22 -98 134 -91 140 3 3 27 -14 55 -37 61 -52 118 -77 190 -86 30
-4 71 -13 90 -21 48 -20 103 -83 120 -135 34 -107 58 -149 94 -164 58 -24 83
-19 128 26 34 34 45 40 69 35 22 -4 29 -2 29 10 0 24 -39 74 -66 84 -33 13
-76 -7 -72 -34 3 -21 27 -35 24 -14 -1 14 5 18 29 18 26 0 16 -29 -24 -69 -34
-34 -44 -39 -78 -35 -44 4 -67 28 -83 82 -17 63 -14 72 25 72 19 0 66 5 105
12 68 12 72 11 125 -15 31 -15 58 -27 60 -27 3 0 5 13 5 30 0 24 -8 34 -44 55
-56 33 -73 52 -58 67 8 8 22 6 52 -6 22 -9 43 -16 45 -16 3 0 5 15 5 34 0 39
3 37 -194 102 l-88 29 -29 57 c-31 62 -57 81 -126 93 -75 12 -46 21 60 17 102
-3 102 -3 160 32 l58 35 75 -29 c41 -17 76 -30 79 -30 2 0 3 19 2 42 l-3 43
-129 42 c-87 29 -132 40 -140 33 -9 -7 -15 5 -25 48 -7 31 -21 79 -31 105 -11
26 -19 51 -19 56 0 4 18 16 40 26 66 30 66 40 -3 40 -103 0 -253 78 -289 149
l-21 41 22 -19 c11 -11 21 -16 21 -11 0 16 -42 75 -53 75 -74 2 -163 15 -176
26 -9 7 -35 27 -57 43 -23 16 -52 44 -65 62 -26 37 -14 32 51 -21 25 -21 59
-44 76 -53 32 -17 157 -30 148 -15 -3 4 -32 8 -64 8 -54 0 -63 3 -117 45 -32
25 -75 57 -95 70 -21 14 -38 27 -38 30 0 12 57 -20 117 -65 36 -27 73 -50 82
-51 51 -1 109 -13 129 -25 20 -13 96 -153 97 -178 0 -4 24 -22 54 -38 29 -17
50 -25 47 -19 -4 6 -21 18 -38 27 -16 8 -28 18 -25 20 3 3 41 -15 85 -39 108
-60 126 -64 166 -33 18 13 46 50 62 80 30 59 38 62 94 46 19 -6 48 -13 63 -15
25 -5 28 -3 25 17 -3 25 -11 28 -177 80 -58 17 -113 40 -124 51 -22 22 -36 14
-21 -11 25 -41 -16 -57 -54 -22 -28 26 -44 58 -71 141 -25 76 -44 97 -131 143
l-63 34 49 21 c82 37 119 83 129 160 4 32 1 45 -15 61 -25 25 -45 25 -71 -1
-19 -19 -19 -22 -5 -44 23 -35 20 -42 -22 -70 -41 -27 -78 -26 -121 2 -20 13
-21 17 -9 24 8 4 32 9 54 10 64 4 62 11 -11 46 -55 25 -64 32 -43 33 52 0 117
41 138 85 41 84 16 147 -59 151 -41 2 -58 -7 -46 -26 4 -6 15 -4 29 5 22 14
24 14 28 -3 3 -10 -1 -35 -9 -55 -12 -29 -21 -37 -42 -38 -78 -4 -97 10 -156
110 -49 85 -88 125 -143 148 -29 12 -245 59 -316 68 -43 6 -41 11 8 25 25 7
52 20 61 30 17 19 46 92 40 99 -2 2 -18 -8 -35 -23 -17 -14 -36 -26 -42 -26
-5 0 -57 19 -116 42 -59 23 -126 42 -149 43 -23 1 -45 4 -48 7 -3 3 24 18 60
34 35 16 63 34 62 39 -2 6 -22 20 -45 31 -33 17 -55 21 -109 18 -37 -2 -78 -6
-90 -9 -21 -5 -22 -3 -13 21 14 35 7 40 -18 14 l-19 -21 -79 20 c-54 13 -98
18 -139 14 -33 -3 -73 -4 -90 -3 -113 7 -182 2 -212 -13 -73 -38 -159 -157
-178 -244 -3 -18 -10 -33 -14 -33 -12 0 -13 160 -1 196 21 62 2 56 -54 -18
l-28 -37 7 -134 c5 -95 4 -140 -4 -153 -11 -18 -12 -18 -10 1 4 57 -2 115 -12
115 -8 0 -9 -17 -6 -52 4 -29 3 -71 -2 -93 l-8 -40 -7 35 c-26 129 -26 129
-22 50 5 -99 -12 -57 -20 49 -14 197 -8 231 54 298 30 32 98 71 120 67 6 -1
16 -2 21 -3 5 0 7 -11 4 -23 -4 -16 -2 -20 5 -13 6 6 12 21 14 35 3 23 0 25
-37 27 -22 1 -54 -3 -71 -8z m411 -29 c5 -9 -24 -15 -49 -11 -5 1 -3 -6 4 -16
8 -10 11 -15 6 -11 -21 17 -129 -62 -132 -97 0 -5 -4 -30 -8 -55 -7 -41 -3
-57 39 -152 26 -59 45 -115 43 -125 -5 -24 -84 136 -102 207 -9 36 -15 48 -18
35 -6 -26 13 -104 46 -187 14 -38 24 -68 22 -68 -9 0 -48 77 -67 133 -27 80
-26 134 5 194 28 56 67 96 116 118 31 14 32 15 6 10 -38 -8 -101 -60 -138
-114 -17 -24 -38 -75 -48 -115 -15 -63 -16 -74 -3 -99 8 -16 12 -31 9 -35 -3
-3 -6 -1 -6 5 0 6 -9 13 -20 16 -17 4 -20 13 -20 59 1 132 98 274 210 306 47
14 97 14 105 2z m320 -24 c6 -2 -17 -9 -50 -16 -70 -14 -129 -42 -169 -79 -22
-20 -26 -21 -16 -5 7 11 28 31 46 43 19 13 34 27 34 32 0 5 9 9 19 9 11 0 22
4 26 9 6 10 1 10 -70 -4 -22 -5 -44 -8 -48 -7 -10 3 -87 -50 -129 -88 -18 -17
-36 -30 -41 -30 -17 0 30 64 68 92 49 37 75 48 145 63 50 10 112 4 185 -19z
m285 -26 c12 -8 10 -9 -7 -10 -13 0 -26 0 -29 1 -4 0 -10 -5 -15 -12 -4 -7
-45 -52 -91 -99 -46 -47 -105 -114 -131 -148 -27 -35 -51 -61 -54 -58 -3 3 1
16 9 28 48 75 50 83 7 38 l-42 -45 27 51 c16 29 45 73 67 99 42 51 49 66 22
44 -28 -22 -56 -58 -89 -116 -25 -44 -32 -50 -36 -35 -11 41 36 106 131 180
30 24 61 52 69 63 8 11 24 24 36 29 24 9 103 3 126 -10z m-510 -4 c0 -3 -6
-11 -13 -18 -8 -7 -27 -34 -43 -58 -21 -34 -29 -41 -32 -27 -3 15 -6 16 -20 5
-22 -16 36 51 68 79 23 21 40 29 40 19z m294 -15 c-35 -21 -128 -111 -162
-156 l-23 -30 16 34 c9 18 40 57 69 87 29 30 49 54 46 54 -29 0 -156 -108
-171 -145 -6 -15 -8 -16 -8 -4 -1 9 13 35 30 58 17 24 28 45 25 48 -8 9 -57
-27 -51 -37 3 -5 0 -12 -6 -16 -8 -4 -9 -3 -5 4 11 18 -2 14 -41 -13 -35 -23
-53 -25 -53 -5 0 12 41 50 54 50 6 0 -2 -11 -18 -25 -16 -14 -25 -25 -19 -25
15 0 54 40 48 50 -12 20 193 87 270 89 l30 1 -31 -19z m-780 -71 c-4 -16 -3
-30 2 -30 5 0 10 -19 11 -43 2 -23 5 -58 7 -77 2 -19 0 -44 -4 -55 -7 -16 -9
-11 -11 20 -1 22 -3 45 -4 50 -11 73 -15 129 -10 145 10 30 15 24 9 -10z m268
-61 c0 -71 20 -161 40 -187 6 -7 9 -15 6 -18 -8 -7 -46 78 -58 128 -11 49 -13
119 -4 143 11 28 16 8 16 -66z m660 -8 c-90 -48 -100 -57 -164 -146 -65 -89
-74 -99 -53 -55 23 46 91 137 129 174 37 34 101 66 136 66 18 -1 6 -11 -48
-39z m-578 -66 c3 -38 12 -91 20 -117 8 -27 12 -48 10 -48 -10 0 -44 93 -50
135 -5 39 3 112 11 103 2 -2 5 -34 9 -73z m142 8 c49 -28 118 -93 108 -102 -4
-3 -9 0 -11 7 -9 24 -57 62 -130 102 -40 22 -75 40 -78 40 -3 0 15 -37 39 -83
45 -86 70 -171 57 -195 -13 -23 -24 -10 -47 53 -12 33 -29 78 -37 100 -17 47
-27 112 -20 132 4 11 13 9 42 -8 20 -12 54 -33 77 -46z m634 51 c22 -9 37 -21
34 -26 -4 -6 16 -9 54 -6 78 4 66 -13 -24 -36 -99 -25 -173 -66 -286 -156 -50
-41 -32 -14 31 44 52 49 125 99 166 114 l30 12 -35 -6 c-41 -7 -88 -36 -190
-117 -110 -89 -105 -85 -92 -61 18 34 159 162 204 185 23 12 62 22 85 23 24 0
43 5 43 9 0 13 -142 6 -171 -9 -23 -11 -89 -81 -179 -186 -13 -16 -28 -28 -32
-28 -13 0 76 112 141 177 81 83 138 100 221 67z m-1315 -59 c7 -68 30 -171 46
-212 33 -85 27 -108 -10 -35 -21 42 -27 66 -37 137 -9 75 -14 67 -14 -25 0
-78 2 -88 41 -159 39 -74 39 -75 9 -39 -18 21 -36 36 -40 33 -8 -5 -29 69 -32
118 -1 15 -6 27 -10 27 -5 0 -6 -12 -4 -27 2 -16 7 -50 11 -78 4 -27 16 -67
27 -88 11 -22 17 -41 15 -44 -9 -9 -48 57 -73 124 -28 75 -28 141 2 226 13 36
55 110 60 104 1 -1 5 -29 9 -62z m685 -110 c16 -33 31 -82 34 -110 l5 -50 -13
50 c-12 47 -39 104 -87 185 l-21 35 26 -25 c15 -13 40 -51 56 -85z m308 10
c-62 -92 -78 -109 -78 -81 0 18 117 176 130 176 6 0 -18 -43 -52 -95z m-628
-20 c0 -35 -31 20 -36 63 l-4 37 20 -40 c11 -22 20 -49 20 -60z m1094 37 c6
-10 -108 -114 -173 -158 -47 -32 -101 -54 -130 -54 -9 0 18 18 61 39 91 46
100 52 168 114 48 44 50 47 24 41 -54 -13 -169 -88 -159 -104 5 -7 -85 -59
-138 -79 -39 -15 -33 -5 11 18 20 11 60 40 87 66 53 50 47 50 -24 2 -41 -28
-141 -72 -141 -63 0 3 33 21 73 42 39 20 83 44 97 53 58 39 134 73 178 81 26
4 50 8 54 9 4 0 9 -3 12 -7z m-164 -6 c0 -8 -191 -128 -196 -123 -13 12 134
108 194 126 1 1 2 -1 2 -3z m-972 -60 c47 -44 38 -56 -11 -15 l-37 31 -44 -21
c-32 -16 -50 -34 -71 -74 l-29 -52 48 48 c52 51 77 57 126 32 31 -16 60 -61
60 -93 0 -51 -108 -212 -143 -212 -6 0 -8 3 -4 6 3 3 -3 29 -12 57 -31 90 -13
160 52 197 24 13 28 13 43 -1 8 -9 18 -34 20 -55 4 -32 0 -48 -25 -86 -31 -49
-58 -64 -48 -29 3 15 0 19 -14 18 -11 -1 -19 -3 -19 -5 0 -9 42 -62 49 -62 17
0 71 127 71 168 0 78 -64 106 -119 52 -38 -39 -47 -86 -33 -173 10 -57 10 -72
-3 -97 -9 -17 -20 -30 -24 -30 -18 0 -35 77 -37 174 -2 116 18 178 73 226 46
41 83 40 131 -4z m1325 13 c72 -18 131 -70 183 -160 51 -89 88 -119 144 -119
57 0 83 20 102 75 15 47 17 49 23 23 5 -19 0 -41 -15 -72 -29 -60 -89 -91
-158 -81 -54 7 -120 41 -136 69 -17 30 -67 74 -105 92 -26 12 -52 15 -103 12
-72 -6 -78 1 -19 21 47 15 106 14 141 -4 15 -8 49 -39 75 -70 26 -30 61 -63
79 -74 31 -19 142 -35 151 -22 2 4 -17 8 -43 10 -71 3 -111 28 -160 99 -58 83
-86 97 -187 96 -66 -1 -94 -7 -155 -32 -65 -27 -71 -28 -48 -9 58 47 153 87
209 88 47 0 51 2 29 10 -14 6 -50 9 -80 7 -45 -3 -68 -12 -125 -49 -103 -66
-103 -66 -86 -45 8 9 41 36 73 58 32 23 56 43 54 46 -7 6 -53 -23 -118 -75
-29 -22 -77 -48 -105 -57 -61 -17 -69 -13 -17 9 36 15 96 58 144 103 60 57
156 76 253 51z m-313 -13 c0 -10 -71 -59 -76 -53 -3 3 11 17 33 31 42 27 43
28 43 22z m-765 -121 c22 -4 60 -19 90 -38 11 -7 41 -25 68 -41 78 -46 53 -39
-48 14 -68 36 -110 52 -152 56 -32 4 -55 3 -51 -1 4 -4 29 -10 55 -12 27 -2
53 -9 58 -15 7 -7 0 -8 -24 -3 -57 12 -65 12 -87 4 -27 -9 -38 -1 -23 18 9 10
8 13 -3 13 -9 0 -21 -21 -31 -53 -16 -52 -72 -151 -112 -199 -52 -62 -127 -86
-171 -53 -34 26 -39 16 -7 -17 45 -48 56 -73 38 -88 -19 -16 -19 -34 0 -26 9
3 15 0 15 -9 0 -25 51 -17 83 13 l29 27 -7 -25 c-4 -14 -14 -32 -21 -41 -8 -8
-14 -23 -14 -32 0 -9 -4 -17 -10 -17 -5 0 -10 6 -10 14 0 30 -62 21 -74 -11
-5 -11 -1 -11 16 2 13 8 29 15 37 15 11 0 9 -5 -6 -15 -21 -15 -21 -16 -5 -45
9 -16 20 -30 23 -30 3 0 14 19 25 42 10 23 37 74 60 114 38 67 39 71 16 56
-14 -9 -37 -15 -50 -13 -18 2 -23 -1 -19 -12 5 -15 -10 -37 -25 -37 -5 0 -6
12 -2 28 l6 27 -21 -25 -21 -25 0 32 c0 17 -3 38 -6 47 -5 12 0 16 17 16 58 0
118 65 232 252 23 37 95 58 113 33 7 -10 15 -12 18 -6 4 6 14 7 23 4 11 -4 14
-3 9 5 -12 20 21 13 71 -14 87 -48 151 -94 155 -112 7 -26 -18 -78 -49 -100
l-28 -20 -75 44 c-70 41 -108 55 -96 35 3 -5 -11 0 -31 10 -21 11 -43 19 -51
19 -27 0 -92 -41 -118 -75 -37 -49 -26 -52 19 -6 57 59 83 66 143 41 l49 -22
-22 -18 c-12 -9 -19 -20 -16 -24 4 -3 -11 -6 -31 -6 -100 0 -169 -81 -271
-320 -17 -41 -35 -87 -38 -101 -6 -25 -5 -27 42 -32 116 -14 299 -102 270
-131 -3 -3 -48 16 -101 43 -113 56 -162 68 -286 66 l-92 -2 -1 26 c-1 35 -7
71 -24 160 -21 102 -19 122 15 198 17 37 32 68 34 70 9 9 36 -11 36 -26 0 -22
-26 -58 -36 -49 -4 4 -2 14 4 21 7 8 9 17 5 20 -3 4 -13 -2 -20 -13 -12 -17
-12 -24 -3 -35 19 -23 33 -18 53 17 14 24 20 29 30 19 9 -10 8 -15 -5 -25 -19
-14 -24 -36 -9 -36 5 0 16 11 25 25 16 24 15 26 -29 72 -25 26 -41 51 -37 55
5 5 28 0 51 -11 24 -10 51 -17 60 -16 9 2 21 4 27 4 40 3 184 192 184 241 0 6
6 26 14 45 l15 34 58 -5 c32 -3 67 -7 78 -9z m375 -55 c23 -23 25 -51 9 -83
-15 -29 -27 -36 -49 -30 -30 8 -53 39 -45 62 7 24 40 45 55 36 16 -10 11 -43
-7 -55 -17 -10 -17 -11 1 -8 10 2 24 11 30 21 23 36 -35 75 -70 47 -17 -15
-19 1 -2 18 18 18 56 14 78 -8z m546 3 c-10 -11 -37 -12 -30 -2 3 5 12 9 21 9
9 0 13 -3 9 -7z m-400 -29 c146 -54 341 -216 442 -366 69 -102 132 -232 181
-372 70 -200 83 -275 87 -496 2 -107 0 -184 -5 -170 -6 22 -8 19 -15 -23 -4
-27 -5 -51 -2 -55 3 -3 6 4 6 16 0 11 5 24 12 28 6 4 9 3 6 -2 -3 -5 -9 -43
-12 -84 -4 -41 -10 -85 -13 -97 -6 -26 -33 -31 -33 -7 0 8 5 12 10 9 17 -11
11 7 -7 21 -17 13 -17 13 0 14 24 0 22 20 -3 20 -19 0 -20 7 -21 98 -1 179
-16 336 -45 477 -12 58 -50 155 -95 237 -11 22 -11 28 0 28 5 0 21 -29 37 -65
15 -36 31 -68 35 -70 3 -3 19 5 33 16 37 29 42 19 7 -15 -28 -26 -28 -27 -14
-70 12 -37 20 -45 46 -50 l32 -7 -24 -18 c-20 -15 -24 -27 -23 -61 1 -23 4
-45 6 -49 7 -11 17 -157 21 -296 4 -153 4 -145 13 -145 11 0 12 10 11 140 0
67 3 101 10 95 5 -5 11 -19 14 -30 3 -11 5 6 6 38 1 42 -3 59 -13 63 -17 6
-39 62 -30 75 10 17 24 9 21 -12 -1 -12 4 -24 11 -26 8 -3 12 6 12 26 0 24 -6
34 -26 43 -25 12 -25 12 -4 20 19 7 21 14 17 56 -9 89 -40 202 -57 203 -10 0
-11 2 -2 6 17 7 15 20 -10 80 -12 29 -28 53 -35 53 -7 0 -13 -5 -13 -11 0 -5
-5 -7 -12 -3 -8 5 -4 13 11 25 24 20 13 34 -20 24 -20 -7 -49 9 -49 27 0 6 11
7 27 4 33 -9 44 8 31 46 -7 18 -15 27 -24 24 -18 -7 -30 14 -14 24 8 5 10 15
5 26 -8 18 -8 18 -12 1 -3 -9 -9 -14 -15 -11 -5 3 -9 -2 -8 -12 6 -52 -13 -27
-71 94 -16 35 -36 65 -44 68 -8 4 -15 17 -15 31 0 13 -4 22 -9 18 -5 -3 -26
12 -45 32 -28 30 -36 34 -36 19 0 -10 17 -35 38 -55 74 -69 117 -147 59 -106
-14 10 -25 11 -39 4 -13 -7 -18 -6 -18 3 0 16 -57 40 -65 28 -3 -4 -2 -15 1
-24 4 -11 1 -16 -11 -16 -22 0 -14 -22 13 -36 12 -6 18 -15 13 -22 -4 -8 -25
3 -61 31 -30 24 -76 58 -103 76 -26 18 -45 36 -42 42 4 5 13 3 21 -6 17 -17
55 -39 57 -33 1 2 12 17 25 35 12 18 22 37 22 43 0 20 -21 9 -38 -20 -9 -16
-20 -30 -24 -30 -12 0 -9 13 7 34 21 27 19 46 -5 46 -21 0 -23 8 -11 49 l7 24
17 -26 c19 -29 53 -38 43 -11 -8 20 12 57 25 48 7 -4 7 -10 0 -17 -15 -15 -14
-27 3 -27 7 0 20 -7 27 -16 12 -15 15 -14 31 6 15 19 22 21 41 12 12 -6 16
-11 10 -11 -24 -2 -13 -21 21 -38 19 -9 37 -24 39 -34 3 -11 13 -19 22 -19 20
0 15 9 -48 83 -48 56 -77 72 -77 42 0 -9 -9 -15 -25 -15 -33 0 -32 6 5 29 l31
18 -43 35 c-50 40 -129 92 -213 138 -77 42 -60 25 30 -31 62 -39 70 -47 67
-71 -4 -30 7 -35 39 -17 19 10 20 9 9 -12 -9 -17 -9 -23 0 -29 9 -6 9 -9 1
-15 -6 -3 -20 4 -31 17 -12 14 -19 18 -20 10 0 -8 10 -23 23 -34 20 -18 20
-19 2 -12 -66 23 -95 28 -107 16 -10 -10 -8 -14 10 -18 12 -4 22 -14 22 -24 0
-20 -46 -54 -60 -45 -17 10 -11 25 10 25 24 0 25 4 5 34 -14 22 -18 22 -63 11
-49 -13 -87 -9 -61 5 8 4 32 10 54 13 103 14 112 18 107 42 -2 13 1 31 7 42 9
16 10 14 11 -12 0 -16 5 -37 10 -45 8 -11 10 -1 8 35 -3 47 -5 51 -51 79 -49
30 -62 31 -51 2 5 -14 9 -15 15 -4 5 7 9 9 9 3 0 -5 -4 -16 -9 -24 -7 -11 -11
-10 -20 7 -6 11 -11 27 -11 34 0 7 -17 27 -37 45 -46 39 -36 41 53 7z m608 -3
c-2 -3 -12 3 -22 13 -16 17 -16 18 5 5 12 -7 20 -15 17 -18z m-1673 2 c13 -16
12 -17 -3 -4 -10 7 -18 15 -18 17 0 8 8 3 21 -13z m1403 10 c4 -4 50 -6 104
-4 100 3 172 -12 142 -29 -8 -4 -69 -10 -135 -13 -66 -3 -105 -3 -87 0 57 8
34 18 -45 19 -173 2 -197 8 -88 19 33 4 62 9 64 11 7 7 37 5 45 -3z m-403 -87
c2 -55 -2 -71 -22 -88 -25 -21 -47 -14 -55 19 -7 27 20 55 44 45 11 -4 13 5 8
44 -6 45 -5 47 9 30 8 -11 16 -34 16 -50z m604 15 c-9 -8 -36 -10 -30 -2 2 4
11 8 20 8 8 0 13 -3 10 -6z m206 -74 c117 -49 150 -67 123 -67 -11 0 -62 20
-113 45 -51 25 -99 45 -106 45 -8 0 -16 4 -20 9 -9 15 25 6 116 -32z m-316 18
c246 -15 232 -12 314 -66 42 -28 67 -48 56 -45 -11 2 -29 7 -40 10 -11 2 -38
7 -60 10 -22 4 -51 8 -65 11 -14 2 -61 7 -105 10 -78 6 -141 20 -158 35 -5 4
31 5 80 3 48 -3 86 -3 83 0 -3 2 -52 8 -109 12 -97 6 -151 17 -151 30 0 3 12
3 28 1 15 -3 72 -7 127 -11z m-626 -26 c15 -43 14 -46 -9 -52 -23 -6 -24 -3
-10 23 6 10 7 21 2 24 -11 7 -82 -103 -76 -119 3 -8 13 -16 22 -19 10 -2 6 -4
-8 -3 -35 3 -39 45 -7 83 13 16 32 44 41 62 21 40 31 40 45 1z m191 -14 c-14
-36 -24 -26 -15 15 4 20 11 28 16 23 6 -6 6 -20 -1 -38z m160 35 c0 -5 -2 -10
-4 -10 -3 0 -8 5 -11 10 -3 6 -1 10 4 10 6 0 11 -4 11 -10z m-100 -22 c0 -6
-6 -5 -15 2 -8 7 -15 14 -15 16 0 2 7 1 15 -2 8 -4 15 -11 15 -16z m-18 -30
c-9 -9 -15 -9 -24 0 -9 9 -7 12 12 12 19 0 21 -3 12 -12z m178 3 c0 -5 10 -13
21 -16 16 -5 18 -9 9 -15 -8 -5 -23 -2 -36 8 -27 20 -30 32 -9 32 8 0 15 -4
15 -9z m878 -27 c6 -58 -72 -142 -147 -159 -27 -6 -32 -4 -25 6 6 12 5 12 -8
1 -10 -8 -19 -9 -22 -3 -3 5 -1 11 5 13 7 2 -6 9 -28 16 -22 6 -48 21 -58 32
-17 18 -13 18 54 -6 82 -29 117 -24 171 26 24 23 30 36 30 70 0 48 23 52 28 4z
m-1508 -1 c8 -8 -41 -43 -61 -43 -17 0 -18 3 -9 20 9 16 8 18 -5 14 -15 -6
-21 7 -8 20 8 7 73 -1 83 -11z m327 -105 c14 -11 16 -11 8 2 -4 8 -15 23 -23
32 -13 16 -12 17 22 11 22 -3 42 -1 51 7 12 10 15 10 15 -3 0 -9 -6 -22 -14
-29 -7 -8 -16 -24 -20 -35 -6 -19 3 -27 71 -65 330 -181 527 -473 539 -798 6
-189 -41 -344 -156 -516 -85 -126 -230 -304 -247 -304 -4 0 5 12 19 27 67 74
192 252 262 374 35 62 73 172 81 239 4 30 9 58 12 63 6 10 5 177 -2 207 -3 14
-8 38 -10 53 -27 148 -130 323 -270 462 -85 84 -118 108 -285 204 -67 39 -99
83 -114 156 -4 22 1 16 19 -22 14 -28 33 -57 42 -65z m-294 61 c-16 -16 -32
-3 -26 22 5 19 7 19 21 5 12 -12 13 -19 5 -27z m168 17 c-13 -14 -20 -29 -16
-35 7 -13 3 -14 -19 -5 -26 10 -19 29 17 47 43 21 44 21 18 -7z m854 -11 c28
-8 59 -21 70 -30 19 -15 13 -16 -75 -12 -52 3 -115 12 -140 20 l-45 16 65 -5
c36 -3 73 -8 83 -10 9 -3 17 -1 17 4 0 5 -6 9 -12 9 -24 1 -103 14 -138 23
-25 6 -13 7 45 4 44 -2 103 -11 130 -19z m-824 -18 c-8 -8 -11 -7 -11 4 0 20
13 34 18 19 3 -7 -1 -17 -7 -23z m-401 -11 c-19 -6 -41 -15 -49 -20 -10 -6
-12 -6 -7 3 10 15 45 30 71 29 12 0 6 -5 -15 -12z m301 -71 c24 -41 46 -75 50
-75 3 0 17 25 30 55 42 95 39 59 -2 -42 -22 -54 -63 -159 -91 -233 -46 -124
-110 -263 -145 -316 -14 -21 -14 -21 -49 14 -40 40 -40 53 -1 21 15 -11 32
-17 38 -14 16 11 99 185 99 210 0 14 -10 26 -25 33 -21 10 -24 14 -13 26 7 7
19 11 27 8 11 -4 10 -7 -4 -12 -18 -6 -18 -7 0 -14 13 -5 22 -1 29 11 23 39
87 199 88 218 0 11 -16 48 -36 81 -19 34 -40 74 -46 88 -18 47 7 18 51 -59z
m-174 59 c-3 -3 -12 -4 -19 -1 -8 3 -5 6 6 6 11 1 17 -2 13 -5z m234 -60 l-16
-35 -7 27 c-9 33 -3 44 21 44 18 0 18 -2 2 -36z m249 -7 c0 -6 11 0 25 13 33
31 39 22 10 -14 l-23 -29 -36 22 c-20 13 -34 27 -31 31 7 11 55 -9 55 -23z
m866 -51 c195 -101 204 -110 233 -230 26 -108 85 -147 184 -122 38 9 34 -10
-5 -30 -41 -21 -108 -19 -150 4 -20 11 -56 52 -89 103 -57 85 -68 119 -23 65
14 -15 28 -25 31 -22 4 3 -6 19 -21 35 -28 30 -90 51 -145 51 -17 0 -31 3 -31
8 0 11 132 -2 157 -16 12 -6 31 -26 43 -43 28 -39 36 -32 16 15 -12 29 -26 42
-69 61 -30 13 -80 28 -112 34 -32 6 -70 17 -86 25 -16 8 -29 10 -29 5 0 -13
63 -39 94 -39 14 0 27 -4 30 -8 3 -5 -17 -5 -44 -2 -47 6 -61 13 -105 53 -24
22 -80 49 -155 73 l-55 18 43 6 c24 4 65 5 90 4 46 -3 46 -3 12 7 -35 9 -152
4 -174 -8 -7 -4 -8 -2 -1 5 18 20 80 31 146 28 59 -3 80 -11 215 -80z m-1411
67 c-11 -2 -32 -8 -47 -13 -16 -5 -28 -7 -28 -4 0 9 44 23 70 22 20 0 21 -1 5
-5z m170 -65 c-32 -116 -189 -477 -202 -464 -2 2 4 21 15 43 27 53 154 366
177 435 25 76 33 65 10 -14z m235 29 c0 -22 -34 -87 -46 -87 -8 0 1 56 15 93
12 31 31 28 31 -6z m223 18 c-3 -9 -8 -14 -10 -11 -3 3 -2 9 2 15 9 16 15 13
8 -4z m-398 -68 c17 -32 17 -36 1 -85 -10 -29 -20 -52 -23 -52 -2 0 -11 7 -20
16 -14 14 -18 14 -31 1 -19 -19 -7 -37 24 -37 29 0 31 -15 4 -30 -16 -9 -20
-8 -20 5 0 8 -4 15 -9 15 -17 0 -23 -20 -11 -35 10 -12 9 -15 -8 -15 -33 0
-39 -39 -11 -62 l24 -19 -30 7 -30 6 25 -21 25 -22 -25 6 c-19 4 -28 0 -39
-16 -12 -20 -11 -25 9 -41 22 -17 22 -18 5 -63 -10 -25 -22 -45 -26 -45 -12 0
-11 14 2 27 8 8 4 17 -12 32 -13 11 -26 21 -30 21 -8 0 115 286 131 305 6 7
21 10 35 7 30 -5 32 7 4 42 -11 14 -16 26 -10 26 5 0 13 -4 16 -10 3 -5 13
-10 21 -10 12 0 11 8 -6 40 -25 48 -11 54 15 7z m261 -3 c49 -29 60 -55 66
-161 5 -78 -8 -69 -17 11 -5 51 -37 136 -50 136 -2 0 1 -13 6 -30 5 -16 14
-45 19 -62 12 -41 13 -158 1 -158 -5 0 -8 18 -7 40 0 22 -1 40 -4 40 -3 0 -12
21 -19 48 -8 26 -22 63 -33 82 -10 19 -17 28 -14 20 40 -125 57 -216 45 -246
-6 -14 -8 -9 -8 18 -1 20 -4 39 -8 41 -5 3 -7 -23 -6 -56 l2 -62 -12 62 c-13
66 -26 94 -20 40 3 -24 2 -29 -6 -17 -9 12 -11 10 -11 -10 -1 -16 -9 -2 -24
40 -13 36 -33 87 -45 114 -34 76 -19 64 24 -19 21 -42 40 -73 42 -71 3 2 -8
34 -22 71 l-27 67 20 20 20 20 23 -71 c13 -39 26 -71 30 -71 7 0 -8 55 -29
110 -5 14 -7 32 -5 40 14 49 10 48 69 14z m-426 -8 c0 -14 -12 -38 -26 -53
l-26 -28 21 29 c12 16 21 39 21 52 0 13 2 24 5 24 3 0 5 -11 5 -24z m1133 -10
c28 -12 100 -76 85 -76 -3 0 -32 16 -64 35 -32 19 -61 35 -66 35 -4 0 -8 5 -8
10 0 14 15 13 53 -4z m-1533 -26 c0 -5 -4 -10 -9 -10 -6 0 -13 5 -16 10 -3 6
1 10 9 10 9 0 16 -4 16 -10z m309 -37 c2 -2 0 -3 -6 -3 -6 0 -21 9 -34 21
l-24 20 30 -17 c17 -10 32 -19 34 -21z m869 12 c24 -31 48 -35 32 -6 -7 13 -7
22 0 26 11 7 13 1 28 -57 6 -23 6 -40 0 -46 -13 -13 15 -67 39 -76 16 -6 16
-6 0 12 -22 24 -21 32 4 32 19 0 20 -4 14 -50 -7 -50 -3 -56 27 -45 9 4 13 18
11 43 -2 29 -1 33 6 17 15 -32 12 -63 -6 -73 -15 -9 -12 -21 30 -118 56 -131
86 -246 93 -357 3 -45 7 -88 9 -94 3 -7 0 -13 -5 -13 -6 0 -10 17 -10 38 0 59
-30 219 -55 297 -32 98 -64 167 -117 255 -25 41 -55 97 -67 124 -13 26 -36 61
-52 77 -33 32 -35 39 -15 39 8 0 23 -11 34 -25z m-259 -69 c1 -68 -5 -55 -12
24 -3 38 -1 57 3 45 5 -11 9 -42 9 -69z m641 59 c17 -9 36 -27 42 -40 15 -32
79 -62 151 -69 92 -9 147 -50 159 -119 6 -31 1 -29 -16 5 -20 41 -78 71 -206
109 -24 8 -66 33 -92 56 -26 23 -67 48 -90 54 -24 7 -47 17 -53 22 -16 14 71
0 105 -18z m-255 -60 c24 -42 25 -46 7 -28 -12 12 -27 25 -34 30 -23 14 -39
51 -25 56 15 6 19 2 52 -58z m-1232 25 c-3 -11 -7 -20 -9 -20 -2 0 -4 9 -4 20
0 11 4 20 9 20 5 0 7 -9 4 -20z m132 10 c-3 -5 -13 -10 -21 -10 -20 0 -17 -13
7 -28 18 -11 24 -11 42 5 l21 18 -18 -29 c-18 -29 -18 -29 3 -23 11 3 24 1 27
-4 3 -5 25 -9 50 -9 26 0 43 -4 39 -9 -5 -8 -45 -7 -115 4 -8 1 -20 -7 -27
-19 -9 -15 -13 -17 -14 -6 -1 8 -2 20 -4 25 -1 6 -3 16 -3 23 -1 6 -6 12 -11
12 -6 0 -11 -21 -13 -47 -4 -55 -28 -73 -28 -21 0 20 -11 49 -27 73 l-27 40
27 -17 c26 -17 27 -17 51 7 24 24 53 35 41 15z m945 -14 c0 -7 7 -19 15 -26 9
-7 25 -27 37 -44 l21 -31 -32 30 c-36 33 -67 85 -51 85 5 0 10 -6 10 -14z
m-474 -71 c27 -85 25 -168 -3 -196 l-22 -22 -35 35 c-36 36 -37 39 -26 113 3
18 29 -49 30 -75 1 -56 40 -63 58 -10 10 28 -5 135 -27 193 -13 34 -14 44 -2
32 5 -6 17 -37 27 -70z m371 3 c-5 -74 -37 -173 -74 -231 -31 -50 -107 -132
-148 -160 -33 -22 -36 -27 53 72 51 56 100 166 127 287 19 88 22 94 37 94 7 0
9 -22 5 -62z m766 23 c4 -4 -12 -6 -35 -4 -63 4 -99 11 -106 18 -9 9 131 -5
141 -14z m-1183 -6 c0 -8 -4 -15 -10 -15 -5 0 -7 7 -4 15 4 8 8 15 10 15 2 0
4 -7 4 -15z m-510 -47 c0 -36 -8 -36 -21 2 -6 17 -17 30 -25 30 -18 0 -18 -8
3 -28 16 -16 15 -17 -6 -20 -37 -6 -53 5 -45 30 10 32 21 37 60 25 28 -9 34
-15 34 -39z m1280 11 c0 -5 -9 -9 -20 -9 -11 0 -20 4 -20 8 0 4 9 8 20 9 11 1
20 -2 20 -8z m-764 -15 c10 -8 13 -13 7 -9 -21 10 -15 -14 12 -49 22 -29 23
-35 11 -52 -8 -10 -18 -15 -22 -11 -5 4 -2 12 5 17 11 6 8 18 -17 56 -43 64
-41 84 4 48z m-318 -9 c4 -3 0 -10 -8 -15 -13 -8 -70 13 -70 27 0 7 70 -4 78
-12z m-70 -23 c2 -7 -3 -12 -12 -12 -9 0 -16 7 -16 16 0 17 22 14 28 -4z m67
-32 c3 -5 -3 -10 -14 -10 -24 0 -28 -15 -6 -24 8 -3 15 -10 15 -15 0 -15 -27
-2 -34 16 -11 27 25 56 39 33z m1386 -52 c116 -15 127 -31 17 -24 -97 6 -111
11 -148 52 l-25 27 36 -21 c22 -14 69 -27 120 -34z m-1106 -58 c15 -17 16 -20
3 -15 -9 4 -19 13 -22 21 -3 8 -12 14 -19 14 -12 0 -12 7 -3 42 l11 42 6 -42
c3 -23 14 -51 24 -62z m575 81 c-5 -11 -15 -23 -22 -27 -6 -4 -9 -3 -6 2 3 5
8 17 11 27 4 9 11 17 17 17 8 0 8 -6 0 -19z m220 9 c0 -5 -5 -10 -11 -10 -5 0
-7 5 -4 10 3 6 8 10 11 10 2 0 4 -4 4 -10z m-1292 -31 c91 -36 131 -58 146
-81 16 -25 3 -31 -66 -30 -54 1 -59 0 -38 -10 14 -6 34 -10 45 -9 19 2 19 1 2
-13 -14 -11 -25 -12 -48 -4 -41 14 -43 22 -18 70 l22 43 -22 -19 c-11 -11 -21
-25 -21 -31 0 -17 -31 -28 -43 -16 -7 7 -1 14 16 20 15 6 27 15 27 21 0 6 -4
8 -10 5 -5 -3 -10 -1 -10 4 0 6 -7 11 -16 11 -11 0 -14 -5 -10 -16 6 -14 1
-16 -31 -10 -66 13 -173 22 -173 15 0 -3 27 -9 61 -12 47 -4 77 -15 137 -50
106 -60 131 -68 168 -50 l29 14 -24 -20 c-34 -30 -65 -26 -149 20 -40 22 -92
46 -115 53 -49 14 -137 12 -168 -4 -18 -10 -20 -9 -17 6 2 11 17 22 36 28 38
10 43 25 7 18 -15 -2 -25 0 -25 7 0 12 0 12 48 16 46 3 53 15 9 15 -20 0 -38
4 -42 9 -11 20 33 30 123 31 80 0 103 -4 170 -31z m1504 -40 c147 -4 180 -7
189 -16 5 -5 14 -24 19 -43 l10 -34 -33 32 c-32 31 -35 32 -125 32 l-92 0 -20
33 c-27 44 -25 55 5 23 13 -14 34 -26 47 -27z m-1142 31 c0 -5 -2 -10 -4 -10
-3 0 -8 5 -11 10 -3 6 -1 10 4 10 6 0 11 -4 11 -10z m330 -36 c-5 -19 -11 -39
-15 -42 -6 -6 0 32 11 66 8 27 11 10 4 -24z m382 24 c-15 -15 -16 -32 -2 -23
6 3 10 3 10 -2 0 -4 -16 -13 -36 -19 l-35 -11 32 33 c18 19 35 34 38 34 3 0 0
-5 -7 -12z m56 -19 c-3 -8 -7 -3 -11 10 -4 17 -3 21 5 13 5 -5 8 -16 6 -23z
m202 21 c12 -8 11 -10 -7 -10 -13 0 -23 5 -23 10 0 13 11 13 30 0z m-985 -18
c-3 -3 -11 0 -18 7 -9 10 -8 11 6 5 10 -3 15 -9 12 -12z m271 -40 c-21 -41
-61 -65 -95 -57 -30 6 -64 37 -75 69 -4 11 8 4 27 -17 22 -24 42 -37 59 -37
30 0 74 32 83 61 4 11 9 18 12 16 2 -3 -2 -18 -11 -35z m754 33 c0 -8 -52 -26
-58 -20 -3 2 6 9 19 14 28 11 39 13 39 6z m800 -4 c0 -20 -72 -64 -106 -66
-47 -3 -103 12 -134 35 l-25 19 50 -5 c29 -3 71 1 100 10 59 17 115 20 115 7z
m-1040 -35 c0 -7 -7 -19 -15 -26 -16 -13 -20 -3 -9 24 8 20 24 21 24 2z m-80
-6 c-8 -5 -19 -10 -25 -10 -5 0 -3 5 5 10 8 5 20 10 25 10 6 0 3 -5 -5 -10z
m-780 -15 c0 -8 -7 -15 -15 -15 -26 0 -18 20 13 29 1 1 2 -6 2 -14z m154 -12
c3 -10 7 -40 10 -68 l5 -50 -12 46 c-8 32 -16 44 -26 41 -10 -3 -12 0 -8 12 4
10 7 22 7 27 0 16 18 10 24 -8z m636 -18 c-16 -19 -30 -19 -30 1 0 8 4 13 9 9
5 -3 13 0 16 6 4 5 9 8 12 5 3 -3 0 -12 -7 -21z m501 10 c17 -9 27 -21 23 -27
-4 -7 -3 -8 4 -4 6 4 28 -2 49 -12 21 -10 56 -19 78 -20 l40 -1 -45 10 c-25 6
-51 17 -59 24 -10 10 9 9 83 -4 53 -10 101 -22 107 -28 7 -7 -4 -8 -35 -3 -25
4 -43 3 -40 -2 3 -4 15 -8 26 -8 49 0 105 -26 150 -71 40 -40 51 -60 77 -144
17 -53 36 -104 43 -113 11 -13 10 -14 -12 -7 -39 11 -48 25 -64 102 -18 87
-35 121 -80 161 -39 34 -80 47 -173 56 -34 3 -78 12 -98 20 -35 15 -135 76
-135 83 0 8 34 1 61 -12z m-1845 -76 c-15 -34 -24 -64 -22 -67 11 -10 26 12
42 61 20 61 44 102 44 75 0 -26 -42 -115 -85 -183 -22 -33 -47 -80 -56 -105
-19 -50 -24 -52 -58 -28 l-24 17 23 68 c23 68 73 176 93 201 9 11 12 11 18 -5
7 -17 8 -17 8 1 1 20 34 51 39 36 2 -4 -8 -36 -22 -71z m1424 76 c0 -2 -14
-12 -31 -21 -25 -13 -29 -18 -18 -26 11 -8 11 -9 -3 -5 -20 7 -32 -19 -12 -27
15 -6 48 21 56 45 3 8 9 11 13 7 11 -11 -18 -51 -49 -68 -24 -12 -28 -12 -36
0 -21 32 -11 56 33 77 49 25 47 24 47 18z m235 -4 c3 -5 1 -12 -5 -16 -5 -3
-10 1 -10 9 0 18 6 21 15 7z m731 -27 c-21 -15 -63 -18 -90 -8 -26 10 -18 20
14 18 17 -1 43 1 58 6 35 9 42 2 18 -16z m-2231 -4 c-3 -5 -11 -10 -16 -10 -6
0 -7 5 -4 10 3 6 11 10 16 10 6 0 7 -4 4 -10z m683 -4 c20 0 29 -3 23 -9 -11
-11 -89 -1 -111 14 -11 7 -5 8 20 2 19 -4 50 -7 68 -7z m1039 -42 c59 -41 92
-51 212 -70 72 -10 107 -52 140 -162 38 -128 45 -135 132 -130 38 2 69 0 69
-4 0 -31 -187 -69 -242 -49 -21 8 -111 151 -101 161 6 6 28 -24 63 -88 14 -25
31 -47 38 -50 15 -5 -61 130 -79 140 -8 4 -39 17 -70 28 -30 11 -64 27 -75 36
-19 15 -19 16 1 8 11 -3 49 -15 84 -25 79 -23 97 -38 131 -115 29 -63 43 -74
88 -73 26 0 26 1 5 9 -26 11 -45 44 -67 122 -9 31 -23 63 -31 71 -8 8 -44 18
-81 22 -94 10 -125 24 -56 24 29 1 51 5 48 9 -3 5 -20 8 -38 7 -18 -1 -40 2
-49 6 -9 5 -19 5 -23 2 -16 -17 -37 -9 -61 23 -29 38 -28 39 12 23 15 -5 46
-12 68 -15 22 -3 45 -7 51 -9 6 -2 16 0 23 5 8 4 -15 10 -53 15 -71 7 -129 38
-198 105 -38 37 -27 32 59 -26z m-1366 14 c36 -29 53 -68 29 -68 -5 0 -10 6
-10 13 0 7 -12 25 -27 39 -30 29 -47 25 -71 -17 -6 -11 -12 -14 -12 -7 0 12
39 70 48 71 2 1 21 -13 43 -31z m1159 17 c7 -9 8 -15 2 -15 -5 0 -12 7 -16 15
-3 8 -4 15 -2 15 2 0 9 -7 16 -15z m-1560 -5 c-19 -13 -30 -13 -30 0 0 6 10
10 23 10 18 0 19 -2 7 -10z m1335 -10 c3 -5 1 -10 -4 -10 -6 0 -11 5 -11 10 0
6 2 10 4 10 3 0 8 -4 11 -10z m-1330 -35 c64 -10 85 -21 85 -45 0 -27 9 -25
46 11 17 17 34 27 38 21 3 -5 -6 -20 -19 -32 -30 -28 -33 -45 -6 -30 39 21 44
-1 6 -26 -32 -21 -56 -12 -79 30 -22 42 -67 62 -97 43 -10 -6 -19 -15 -19 -19
0 -8 32 2 40 13 3 3 16 2 30 -3 18 -7 21 -11 11 -17 -9 -6 -7 -10 8 -14 12 -3
21 -11 21 -19 0 -9 -3 -9 -8 -2 -10 15 -128 12 -143 -3 -10 -10 -6 -11 19 -4
17 5 37 8 44 7 55 -10 83 -39 86 -91 l1 -30 -12 25 c-7 14 -16 26 -22 27 -22
4 -59 22 -47 22 7 1 22 -4 33 -9 13 -7 19 -7 19 -1 0 16 -46 24 -88 16 -48 -9
-122 -83 -123 -123 -1 -36 -8 -74 -15 -81 -4 -3 -5 21 -2 54 3 43 14 80 39
130 58 115 93 174 99 165 3 -4 28 -11 55 -15z m390 -45 c-8 -13 -35 -13 -35 0
0 6 8 10 18 10 16 1 16 1 -1 11 -9 5 -22 7 -28 3 -7 -4 -7 1 1 15 l11 22 20
-25 c11 -14 17 -30 14 -36z m902 14 c-36 -33 -57 -39 -64 -18 -3 9 71 52 92
53 6 0 -7 -15 -28 -35z m470 -77 c19 -38 29 -66 23 -62 -6 3 -22 30 -37 58
-14 29 -37 68 -52 87 l-25 35 28 -25 c15 -14 44 -56 63 -93z m-412 -24 c-9
-13 -31 -31 -48 -38 -30 -13 -34 -12 -59 13 -36 34 -38 62 -3 34 46 -36 98 3
113 82 l7 41 3 -53 c2 -37 -2 -62 -13 -79z m-15 97 c0 -11 -12 -33 -27 -49
-22 -23 -33 -28 -48 -21 -18 7 -17 9 12 20 19 7 37 23 45 41 15 34 18 36 18 9z
m366 -26 c15 -25 37 -70 49 -100 12 -30 26 -55 31 -56 11 -1 106 -65 164 -111
24 -20 46 -34 48 -32 3 2 -10 22 -28 45 -29 37 -31 50 -4 32 15 -9 66 -104 60
-110 -3 -2 -24 10 -46 28 -23 18 -74 49 -113 69 -40 20 -71 42 -70 49 2 6 -2
11 -7 9 -12 -2 -27 21 -77 128 -20 44 -39 83 -41 88 -2 4 -1 7 2 7 3 0 17 -21
32 -46z m-1291 -4 l40 22 -29 -23 c-36 -29 -55 -74 -49 -119 3 -19 2 -32 -3
-27 -4 4 -9 30 -10 57 -1 29 -10 64 -23 85 -28 48 -26 51 7 14 l28 -31 39 22z
m1188 0 c3 -13 0 -20 -9 -20 -8 0 -14 2 -14 4 0 2 -3 11 -6 20 -4 10 -1 16 9
16 8 0 17 -9 20 -20z m-1336 -12 c-3 -8 -6 -5 -6 6 -1 11 2 17 5 13 3 -3 4
-12 1 -19z m197 -24 c4 -11 1 -14 -13 -12 -21 3 -51 -18 -51 -38 0 -7 7 -20
16 -28 14 -14 18 -14 42 0 l27 16 -22 -20 c-50 -45 -94 11 -53 68 23 33 45 39
54 14z m1131 -4 c3 -5 -1 -10 -10 -10 -9 0 -13 5 -10 10 3 6 8 10 10 10 2 0 7
-4 10 -10z m-1159 -57 c-10 -10 -19 5 -10 18 6 11 8 11 12 0 2 -7 1 -15 -2
-18z m578 -14 c-10 -11 -28 -26 -39 -31 -11 -6 -4 5 15 24 37 37 57 43 24 7z
m312 -36 c-53 -48 -66 -52 -66 -24 0 11 -3 27 -7 36 -5 15 -3 16 15 6 17 -9
28 -8 52 4 17 9 34 23 37 33 5 13 8 13 11 2 3 -8 -16 -33 -42 -57z m384 16
c12 -23 19 -43 16 -46 -8 -9 14 -44 24 -38 5 3 11 1 14 -4 4 -5 38 -21 76 -36
51 -19 78 -37 97 -61 14 -19 23 -37 20 -40 -3 -3 -10 4 -17 15 -6 12 -15 19
-20 16 -4 -3 -20 -1 -34 5 -14 5 -26 6 -26 2 0 -15 102 -69 145 -76 144 -25
149 -29 190 -147 10 -26 32 -62 50 -79 32 -31 37 -33 89 -27 64 6 73 -5 21
-30 -19 -9 -32 -20 -29 -25 8 -13 -27 -10 -87 8 -67 20 -71 23 -109 90 -37 66
-72 89 -159 104 -70 12 -111 33 -151 75 -24 26 -22 25 45 -9 68 -35 98 -40 59
-11 -10 8 -25 12 -32 10 -7 -3 -10 0 -7 5 3 5 -5 15 -19 22 -14 6 -26 14 -26
18 0 4 -26 23 -58 43 -58 36 -99 73 -90 82 2 3 13 -3 24 -13 74 -67 199 -140
285 -166 47 -14 93 -34 103 -45 9 -10 32 -54 50 -97 18 -43 39 -80 47 -83 12
-3 12 -2 1 12 -8 9 -20 44 -28 78 -29 125 -34 129 -187 175 -32 9 -78 32 -102
51 -24 18 -50 33 -57 33 -19 0 -99 52 -123 80 -15 17 -6 13 32 -13 29 -19 74
-40 100 -46 27 -5 57 -13 67 -17 13 -5 17 -4 12 4 -3 6 -32 20 -64 32 -78 28
-120 51 -128 70 -18 43 -42 120 -39 120 3 0 14 -18 25 -41z m-1725 12 c2 -4
-9 -6 -24 -3 -22 3 -34 -3 -54 -28 -15 -17 -27 -39 -28 -48 0 -9 -2 -25 -4
-35 -2 -10 8 -31 22 -47 27 -33 20 -39 -15 -14 -48 33 -47 101 0 152 35 37 87
48 103 23z m140 -21 c-13 -15 -22 -17 -29 -10 -12 12 8 30 33 30 11 0 10 -5
-4 -20z m1241 -34 c-17 -26 -91 -66 -123 -66 -11 0 -28 -10 -36 -22 l-16 -23
0 26 c-1 14 6 49 15 78 16 56 30 58 40 5 3 -16 7 -31 10 -33 8 -8 50 17 84 50
37 36 54 27 26 -15z m-1604 -29 c21 -27 38 -54 38 -60 0 -13 -4 -8 -44 46 -15
21 -30 36 -32 34 -3 -3 1 -26 7 -53 10 -39 14 -45 21 -28 8 17 8 17 4 -3 -3
-15 4 -27 20 -38 27 -17 55 -66 59 -102 2 -19 0 -21 -12 -11 -8 7 -31 37 -50
68 -20 30 -49 70 -64 88 -17 19 -29 44 -29 60 0 33 31 83 38 62 3 -8 22 -37
44 -63z m254 38 c-9 -14 -21 -23 -26 -20 -4 3 1 16 13 29 27 31 35 25 13 -9z
m1004 20 c0 -2 -9 -13 -20 -23 -23 -22 -120 -76 -120 -68 0 3 15 13 33 22 17
9 48 30 67 45 35 30 40 32 40 24z m-860 -48 c-14 -7 -45 -42 -70 -79 -53 -76
-104 -137 -134 -158 -12 -8 10 21 48 65 37 44 81 103 97 130 22 40 34 51 56
53 l28 2 -25 -13z m829 -23 c-17 -21 -129 -81 -129 -69 0 3 19 14 43 26 23 12
53 30 66 40 29 23 38 24 20 3z m370 -10 c-26 -28 -149 -94 -175 -94 -13 0 -14
3 -4 15 7 8 17 15 24 15 17 0 134 60 147 76 6 8 16 14 22 14 6 0 0 -12 -14
-26z m255 -9 c3 -8 1 -15 -4 -15 -6 0 -10 7 -10 15 0 8 2 15 4 15 2 0 6 -7 10
-15z m-638 -34 c-20 -21 -137 -85 -176 -95 -14 -4 17 15 69 43 51 27 98 54
104 60 19 19 21 12 3 -8z m352 -24 c-34 -28 -142 -71 -160 -64 -9 4 -7 8 7 12
11 3 54 21 95 40 90 40 93 40 58 12z m-1178 -20 c0 -51 -47 -137 -83 -152 -65
-27 -67 -2 -8 80 20 28 44 62 54 78 23 36 37 34 37 -6z m-308 -9 c21 -33 33
-72 19 -64 -9 6 -41 69 -41 82 0 10 9 2 22 -18z m1108 -3 c-15 -18 -87 -60
-120 -70 -14 -4 9 14 50 39 84 50 87 52 70 31z m380 -7 c-14 -11 -50 -32 -80
-45 -30 -13 -63 -29 -73 -34 -34 -18 -67 -29 -67 -21 0 12 66 47 135 73 33 12
69 28 80 35 30 21 33 16 5 -8z m-1340 -3 c0 -2 -9 -9 -20 -15 -12 -6 -20 -7
-20 -1 0 5 8 12 18 14 9 3 18 5 20 6 1 0 2 -1 2 -4z m1387 -27 c-3 -8 -6 -5
-6 6 -1 11 2 17 5 13 3 -3 4 -12 1 -19z m399 -74 c61 -79 87 -94 171 -94 78 0
111 -22 173 -118 21 -33 45 -56 71 -67 42 -19 119 -25 159 -11 l25 8 -23 -17
c-30 -22 -117 -23 -158 -2 -17 9 -48 37 -70 64 -64 80 -111 108 -193 117 -30
3 -67 14 -81 24 -28 17 -111 114 -145 167 -32 51 8 11 71 -71z m-851 60 c-36
-28 -61 -36 -30 -10 17 14 35 26 40 26 6 -1 1 -8 -10 -16z m395 -13 c0 -13
-128 -73 -148 -69 -31 6 -14 22 38 35 28 7 63 19 78 28 33 17 32 17 32 6z m28
-43 c-25 -45 -65 -71 -129 -83 -28 -5 -36 -3 -36 8 0 9 14 17 36 20 65 8 110
33 128 71 9 20 19 34 21 31 2 -2 -7 -23 -20 -47z m407 -27 c53 -69 93 -107
118 -110 4 -1 21 -1 38 -1 17 0 28 -4 24 -10 -3 -5 -4 -10 -1 -10 2 0 13 -3
23 -6 15 -5 15 -4 3 5 -12 8 -12 11 -2 11 28 0 80 -32 118 -72 l39 -42 -37 28
c-21 15 -81 40 -133 56 -53 15 -107 35 -120 44 -20 13 -90 108 -129 174 -18
31 4 6 59 -67z m-31 -16 c41 -63 48 -85 10 -34 -27 36 -57 89 -51 89 2 0 21
-25 41 -55z m-919 15 c-3 -5 -12 -10 -18 -10 -7 0 -6 4 3 10 19 12 23 12 15 0z
m55 5 c0 -5 -107 -85 -115 -85 -3 0 -23 -11 -45 -25 -84 -53 -48 -22 51 44
111 75 109 73 109 66z m270 -59 c0 -36 5 -48 26 -65 26 -21 60 -29 50 -12 -5
8 53 5 62 -3 2 -3 -10 -12 -28 -21 -62 -32 -106 -2 -125 83 -8 36 -10 38 -31
17 -9 -8 -21 -15 -27 -15 -14 1 49 60 63 60 6 0 10 -20 10 -44z m67 -22 c14
-4 42 1 65 10 52 20 60 13 17 -14 -24 -14 -47 -20 -79 -18 -45 3 -45 3 -47 43
-2 38 -2 39 8 12 6 -16 21 -30 36 -33z m283 -29 c10 -15 7 -14 -13 4 -15 14
-27 29 -27 33 0 10 16 -5 40 -37z m-25 -15 l20 -25 -22 19 c-13 11 -23 24 -23
29 0 6 1 8 3 6 1 -2 11 -15 22 -29z m-354 -24 c8 -29 39 -59 81 -77 37 -15 26
-30 -14 -18 -40 11 -73 43 -92 91 -14 33 -14 36 1 34 9 -2 20 -15 24 -30z
m349 -31 c0 -11 -14 7 -31 40 -7 13 -3 12 10 -5 11 -14 21 -29 21 -35z m-412
33 c-2 -6 -10 -14 -16 -16 -7 -2 -10 2 -6 12 7 18 28 22 22 4z m112 -28 c3 -3
21 -13 40 -23 35 -17 35 -17 5 -12 -16 4 -43 20 -60 37 -23 24 -9 22 15 -2z
m269 -10 c11 -24 11 -24 -3 -6 -9 11 -16 24 -16 30 0 12 5 7 19 -24z m-711 -3
c-37 -30 -133 -83 -124 -68 9 15 128 91 141 90 6 0 -2 -10 -17 -22z m880 5 c2
-7 -3 -12 -12 -12 -9 0 -16 7 -16 16 0 17 22 14 28 -4z m-178 -59 c0 -3 -9 2
-20 12 -18 16 -20 16 -20 2 0 -10 -4 -17 -10 -17 -12 0 -12 0 1 39 l11 32 19
-31 c11 -17 19 -33 19 -37z m-327 43 c24 -19 21 -27 -8 -21 -81 17 -81 17 -60
25 29 12 48 11 68 -4z m524 -33 c-4 -21 -9 -62 -12 -90 -3 -29 -7 -76 -10
-103 -14 -141 -20 -165 -50 -194 -20 -20 -25 -35 -25 -76 0 -94 32 -116 75
-53 32 48 35 18 3 -38 -24 -43 -33 -46 -65 -24 -44 31 -49 98 -12 196 24 65
78 329 68 329 -6 0 -35 -116 -46 -185 -3 -16 -18 -68 -34 -114 -32 -94 -39
-173 -18 -216 22 -44 42 -52 83 -32 42 20 70 68 62 108 -7 36 11 38 20 3 18
-72 -32 -133 -111 -136 -31 -1 -43 4 -61 28 -47 58 -44 120 15 334 22 80 45
175 51 212 7 39 16 65 22 62 5 -3 7 -13 3 -21 -4 -13 -3 -14 9 -4 9 7 18 21
21 32 11 33 18 21 12 -18z m-1037 13 c0 -2 -8 -10 -17 -17 -16 -13 -17 -12 -4
4 13 16 21 21 21 13z m1138 -51 c29 -60 79 -91 171 -104 79 -12 115 -26 106
-42 -4 -5 -1 -8 6 -7 11 3 42 -42 35 -50 -2 -2 -23 11 -47 28 -31 21 -61 32
-99 37 -66 7 -102 24 -137 63 -34 38 -42 31 -12 -9 33 -45 61 -60 121 -67 74
-9 76 -17 2 -12 -46 3 -69 10 -91 29 -40 32 -85 103 -77 122 3 8 1 25 -6 36
-6 12 -7 21 -2 21 4 0 18 -20 30 -45z m-622 28 c-8 -9 -14 -10 -50 -12 -13 0
-40 -12 -60 -26 -20 -13 -36 -20 -36 -15 0 9 45 43 70 53 23 8 84 8 76 0z m69
-37 c11 -2 24 -4 28 -5 5 0 5 -6 2 -11 -4 -7 -35 -8 -83 -4 -75 6 -78 5 -134
-29 -32 -20 -58 -34 -58 -32 0 12 51 51 95 72 49 24 57 24 150 9z m175 -16 c0
-5 -4 -10 -9 -10 -6 0 -13 5 -16 10 -3 6 1 10 9 10 9 0 16 -4 16 -10z m-213
-45 l28 -25 -55 20 -55 20 28 -24 c37 -34 34 -39 -9 -14 -31 18 -41 20 -67 10
-44 -17 -44 -8 0 16 53 29 96 28 130 -3z m173 -11 c-18 -21 -24 -10 -9 18 8
14 14 18 17 10 2 -7 -2 -19 -8 -28z m139 11 c-23 -24 -49 -33 -49 -17 0 8 50
41 64 42 4 0 -2 -11 -15 -25z m-910 -8 c-2 -1 -13 -9 -24 -17 -19 -14 -19 -14
-6 3 7 9 18 17 24 17 6 0 8 -1 6 -3z m1146 -27 c9 -16 13 -30 11 -30 -3 0 -12
14 -21 30 -9 17 -13 30 -11 30 3 0 12 -13 21 -30z m-616 -6 c15 -11 19 -20 12
-27 -6 -6 -15 -5 -25 6 -12 12 -24 13 -53 6 -56 -13 -62 -10 -23 11 43 24 59
24 89 4z m985 -25 c26 -44 15 -43 -16 2 -15 21 -21 36 -15 33 7 -2 21 -18 31
-35z m-759 21 c3 -5 -1 -10 -10 -10 -9 0 -13 5 -10 10 3 6 8 10 10 10 2 0 7
-4 10 -10z m417 -60 c6 0 6 6 -2 15 -9 10 -9 15 -1 15 6 0 11 -4 11 -8 0 -14
71 -41 124 -47 54 -7 81 -18 88 -37 9 -24 0 -115 -22 -213 -7 -33 -8 -26 -5
34 4 87 -11 135 -49 153 -15 6 -26 16 -26 21 0 5 11 2 25 -7 31 -20 36 -20 30
2 -3 9 4 -1 15 -23 l19 -40 1 32 c0 41 -27 59 -98 67 -29 3 -64 13 -77 22 -14
9 -25 12 -25 6 0 -6 5 -14 10 -17 6 -4 8 -10 5 -15 -6 -11 19 -20 56 -20 28 0
40 -15 18 -22 -6 -2 7 -12 30 -22 22 -11 42 -26 42 -35 5 -47 6 -91 3 -91 -2
0 -8 19 -15 43 -13 49 -39 81 -82 98 -48 19 -105 59 -112 77 -4 12 1 10 18 -6
39 -37 42 -25 3 18 -20 22 -36 43 -36 48 0 4 10 -5 21 -20 11 -16 25 -28 31
-28z m-277 20 c16 -17 16 -20 3 -15 -9 4 -19 13 -22 21 -7 19 -2 18 19 -6z
m-31 -39 c-7 -7 -34 21 -28 31 3 5 12 1 19 -9 7 -10 12 -20 9 -22z m-30 -30
c-6 -6 -24 19 -24 34 1 6 7 1 15 -9 8 -11 12 -22 9 -25z m-54 4 c6 -8 10 -19
8 -24 -1 -5 -11 2 -21 15 -19 26 -8 34 13 9z m394 -56 c47 -21 22 -26 -28 -5
-37 15 -45 25 -51 58 -4 21 -2 20 17 -6 12 -16 40 -37 62 -47z m-427 34 c22
-29 34 -53 26 -53 -9 1 -55 70 -46 70 3 0 12 -8 20 -17z m823 -37 c0 -5 -7 -3
-15 4 -8 7 -15 20 -15 28 0 13 3 12 15 -4 8 -10 15 -23 15 -28z m-190 -241 c0
-14 4 -25 8 -25 4 0 8 -10 9 -22 2 -18 0 -19 -12 -7 -19 19 -31 79 -16 79 6 0
11 -11 11 -25z"/>
<path d="M675 2869 c-4 -6 -5 -12 -2 -15 2 -3 7 2 10 11 7 17 1 20 -8 4z"/>
<path d="M1390 2950 c-9 -6 -10 -10 -3 -10 6 0 15 5 18 10 8 12 4 12 -15 0z"/>
<path d="M528 2458 c-19 -29 -29 -68 -18 -68 5 0 11 9 15 20 3 10 20 31 36 45
l31 25 -25 0 c-15 0 -31 -9 -39 -22z"/>
<path d="M575 2431 c-3 -5 -1 -12 5 -16 5 -3 10 1 10 9 0 18 -6 21 -15 7z"/>
<path d="M545 2400 c4 -7 2 -16 -5 -20 -7 -4 -8 -10 -3 -13 6 -4 18 0 28 7 18
13 18 14 -4 26 -18 9 -22 9 -16 0z"/>
<path d="M421 2374 c0 -11 3 -14 6 -6 3 7 2 16 -1 19 -3 4 -6 -2 -5 -13z"/>
<path d="M431 2280 c0 -8 4 -24 9 -35 l9 -20 0 20 c0 11 -4 27 -9 35 -9 13
-10 13 -9 0z"/>
<path d="M785 2388 c-21 -20 -25 -28 -13 -28 24 0 65 37 53 47 -6 6 -22 -2
-40 -19z"/>
<path d="M734 2368 c-15 -24 -32 -50 -38 -58 -6 -8 -1 -7 11 4 21 17 68 96 58
96 -3 0 -17 -19 -31 -42z"/>
<path d="M900 2395 c-10 -12 -16 -13 -26 -4 -19 16 -17 -1 2 -23 16 -17 15
-18 -33 -17 -27 1 -62 -5 -79 -14 -32 -17 -127 -113 -164 -167 l-24 -35 27 24
c15 13 37 39 49 57 13 19 44 45 71 59 47 26 62 40 30 28 -16 -6 -16 -5 -4 10
13 17 42 10 56 -14 10 -15 52 -29 69 -23 8 3 19 26 26 52 6 26 16 52 21 58 6
8 6 14 1 18 -6 3 -15 -1 -22 -9z m-38 -87 c-2 -11 -10 -16 -16 -13 -6 3 -19 8
-28 11 -29 10 -20 22 16 21 27 -1 32 -4 28 -19z"/>
<path d="M920 2325 c-13 -39 -8 -65 12 -65 10 0 10 2 -1 9 -20 13 -5 71 20 71
10 0 19 5 19 10 0 6 -9 10 -19 10 -13 0 -23 -11 -31 -35z"/>
<path d="M990 2329 c0 -11 -10 -34 -21 -51 -24 -33 -24 -33 35 -65 29 -15 30
-15 58 16 16 18 28 43 28 59 0 25 -2 24 -19 -14 -10 -23 -26 -44 -35 -47 -24
-9 -56 14 -56 40 0 26 15 31 24 8 3 -8 10 -15 15 -15 12 0 45 59 38 67 -3 3
-12 -8 -20 -23 -9 -18 -17 -23 -21 -15 -4 7 -2 18 4 26 14 16 5 35 -16 35 -8
0 -14 -9 -14 -21z"/>
<path d="M935 2300 c-3 -5 -1 -10 4 -10 6 0 11 5 11 10 0 6 -2 10 -4 10 -3 0
-8 -4 -11 -10z"/>
<path d="M750 2223 c-8 -3 -36 -23 -61 -44 -36 -30 -49 -35 -59 -26 -10 9 -12
9 -8 -2 8 -26 22 -22 93 24 38 25 75 43 82 40 8 -2 11 0 8 5 -7 11 -30 12 -55
3z"/>
<path d="M585 2120 c-3 -5 -2 -10 4 -10 5 0 13 5 16 10 3 6 2 10 -4 10 -5 0
-13 -4 -16 -10z"/>
<path d="M535 2110 c-3 -6 1 -7 9 -4 18 7 21 14 7 14 -6 0 -13 -4 -16 -10z"/>
<path d="M315 2030 c-8 -46 -1 -65 9 -25 4 14 11 23 16 20 6 -4 8 -11 5 -16
-4 -5 -1 -9 4 -9 17 0 13 19 -8 46 l-19 24 -7 -40z"/>
<path d="M347 1981 l-37 -37 16 -50 c8 -27 19 -57 24 -66 6 -10 7 -24 4 -33
-8 -19 3 -65 15 -65 5 0 8 19 8 43 0 23 3 52 7 65 6 16 5 22 -7 22 -11 0 -13
-6 -9 -22 3 -14 2 -19 -6 -14 -15 9 -16 43 -2 51 16 10 12 38 -5 31 -24 -9
-18 11 10 32 14 11 25 23 25 27 0 5 -8 1 -17 -7 -10 -8 -24 -18 -31 -23 -25
-14 5 31 33 49 14 9 25 21 25 26 0 17 -14 10 -53 -29z"/>
<path d="M420 1981 c-16 -30 -12 -36 10 -16 21 19 26 35 10 35 -5 0 -14 -9
-20 -19z"/>
<path d="M405 1919 c-5 -7 -1 -17 8 -23 10 -8 12 -17 6 -27 -12 -22 -28 -129
-19 -129 10 0 20 38 20 77 0 17 5 35 11 39 6 3 8 17 4 33 -8 34 -21 46 -30 30z"/>
<path d="M446 1843 c-11 -26 -7 -36 9 -23 23 19 20 -8 -5 -45 -21 -32 -25 -45
-12 -45 10 0 52 85 52 104 0 20 -37 27 -44 9z"/>
<path d="M1580 2098 c0 -7 10 -19 21 -27 18 -11 19 -15 8 -23 -10 -7 -8 -8 8
-3 16 4 25 0 33 -15 15 -27 8 -35 -19 -20 -12 6 -21 8 -21 4 0 -3 -6 -1 -14 5
-17 14 -38 7 -55 -21 -11 -18 -10 -24 14 -47 l26 -26 28 34 c25 30 30 32 50
21 15 -8 21 -8 17 -1 -9 15 7 14 22 -1 6 -6 14 -9 17 -6 8 8 -72 99 -106 121
-22 14 -29 16 -29 5z m30 -101 c0 -2 -9 -12 -19 -22 -19 -16 -20 -16 -18 4 1
13 8 21 19 21 10 0 18 -2 18 -3z"/>
<path d="M1785 2009 c-4 -6 -5 -12 -4 -13 2 -1 15 -11 29 -21 14 -9 17 -15 8
-12 -23 8 -23 -6 1 -27 10 -9 21 -30 25 -47 3 -16 9 -29 13 -29 18 1 35 19 28
30 -6 9 -10 9 -17 -1 -7 -11 -8 -9 -4 4 4 12 -6 40 -26 73 -33 55 -42 62 -53
43z"/>
<path d="M1260 2271 c0 -5 7 -14 15 -21 13 -10 15 -9 15 9 0 12 -6 21 -15 21
-8 0 -15 -4 -15 -9z"/>
<path d="M2020 2027 c3 -3 19 -8 35 -10 49 -9 76 -16 112 -28 19 -6 36 -9 39
-7 7 7 -95 38 -146 45 -25 3 -43 3 -40 0z"/>
<path d="M2375 1900 c3 -5 8 -10 11 -10 2 0 4 5 4 10 0 6 -5 10 -11 10 -5 0
-7 -4 -4 -10z"/>
<path d="M900 1592 c0 -5 9 -17 19 -26 15 -13 20 -14 23 -4 3 7 -2 18 -11 25
-19 15 -31 16 -31 5z"/>
<path d="M1311 1970 c0 -8 4 -22 9 -30 12 -18 12 -2 0 25 -6 13 -9 15 -9 5z"/>
<path d="M1361 1814 c0 -11 3 -14 6 -6 3 7 2 16 -1 19 -3 4 -6 -2 -5 -13z"/>
<path d="M1311 1784 c0 -11 3 -14 6 -6 3 7 2 16 -1 19 -3 4 -6 -2 -5 -13z"/>
<path d="M1730 1851 c0 -12 5 -21 10 -21 6 0 10 6 10 14 0 8 -4 18 -10 21 -5
3 -10 -3 -10 -14z"/>
<path d="M445 1650 l-40 -5 53 -12 c30 -7 62 -13 73 -13 11 0 17 -4 14 -10 -3
-5 -2 -10 4 -10 5 0 12 4 15 9 8 13 -21 34 -35 25 -8 -4 -9 -3 -5 4 4 7 4 12
-1 13 -4 0 -15 2 -23 3 -8 1 -33 -1 -55 -4z"/>
<path d="M410 1622 c0 -5 7 -9 15 -9 8 0 12 4 9 9 -3 4 -9 8 -15 8 -5 0 -9 -4
-9 -8z"/>
<path d="M675 1580 c-11 -18 6 -30 43 -30 l37 0 -25 20 c-28 22 -46 25 -55 10z"/>
<path d="M261 1319 c-13 -28 -25 -68 -27 -88 -5 -36 3 -20 48 102 19 50 1 39
-21 -14z"/>
<path d="M2440 1296 c0 -2 15 -6 34 -8 19 -2 32 0 30 4 -5 8 -64 12 -64 4z"/>
<path d="M1787 1292 c-19 -20 -23 -37 -7 -27 10 6 33 45 27 45 -2 0 -11 -8
-20 -18z"/>
<path d="M2304 1136 c11 -9 24 -16 30 -16 12 0 7 5 -24 19 -24 11 -24 11 -6
-3z"/>
<path d="M1676 1141 c-4 -7 -5 -15 -2 -18 9 -9 19 4 14 18 -4 11 -6 11 -12 0z"/>
<path d="M1961 414 c0 -11 3 -14 6 -6 3 7 2 16 -1 19 -3 4 -6 -2 -5 -13z"/>
<path d="M2140 601 c0 -5 5 -13 10 -16 6 -3 10 -2 10 4 0 5 -4 13 -10 16 -5 3
-10 2 -10 -4z"/>
<path d="M2585 1700 c4 -6 11 -8 16 -5 14 9 11 15 -7 15 -8 0 -12 -5 -9 -10z"/>
<path d="M2390 1571 c0 -5 7 -15 17 -22 15 -13 15 -12 4 9 -12 23 -21 28 -21
13z"/>
<path d="M1506 963 c-6 -14 -5 -15 5 -6 7 7 10 15 7 18 -3 3 -9 -2 -12 -12z"/>
<path d="M1430 820 c-6 -11 -8 -20 -6 -20 3 0 10 9 16 20 6 11 8 20 6 20 -3 0
-10 -9 -16 -20z"/>
<path d="M2205 737 c47 -59 55 -64 130 -71 52 -4 54 -4 18 4 -57 12 -101 36
-147 79 l-39 36 38 -48z"/>
<path d="M1314 622 c-6 -9 -20 -34 -33 -54 -12 -21 -20 -38 -18 -38 8 0 70
100 65 105 -2 2 -8 -4 -14 -13z"/>
<path d="M2413 330 c0 -25 2 -35 4 -22 2 12 2 32 0 45 -2 12 -4 2 -4 -23z"/>
<path d="M960 283 c-32 -21 -142 -103 -155 -116 -17 -17 67 34 122 75 64 47
88 77 33 41z"/>
<path d="M2401 244 c0 -11 3 -14 6 -6 3 7 2 16 -1 19 -3 4 -6 -2 -5 -13z"/>
<path d="M2391 184 c0 -11 3 -14 6 -6 3 7 2 16 -1 19 -3 4 -6 -2 -5 -13z"/>
<path d="M859 153 c-13 -17 -13 -17 6 -3 11 8 22 16 24 17 2 2 0 3 -6 3 -6 0
-17 -8 -24 -17z"/>
<path d="M1273 82 c26 -9 58 -31 72 -47 18 -22 24 -26 25 -13 0 25 -58 65
-105 71 l-40 6 48 -17z"/>
<path d="M2400 97 c0 -9 36 -44 57 -55 23 -13 101 -17 90 -5 -7 6 -30 10 -69
12 -9 1 -30 13 -47 27 -17 14 -31 24 -31 21z"/>
<path d="M1305 40 c21 -24 26 -25 19 -6 -3 8 -13 17 -22 21 -13 5 -13 2 3 -15z"/>
<path d="M1230 39 c0 -5 6 -9 14 -9 8 0 22 -3 32 -7 11 -4 15 -3 11 4 -8 13
-57 23 -57 12z"/>
<path d="M1723 33 c-13 -8 -23 -20 -23 -26 0 -7 4 -7 12 1 7 7 19 12 28 12 13
0 13 -1 0 -10 -12 -8 -10 -10 8 -10 18 0 23 5 20 22 -4 28 -17 31 -45 11z"/>
<path d="M2590 22 c-78 -7 -42 -17 65 -17 62 0 107 3 100 8 -16 9 -112 14
-165 9z"/>
<path d="M2490 10 c0 -5 5 -10 11 -10 5 0 7 5 4 10 -3 6 -8 10 -11 10 -2 0 -4
-4 -4 -10z"/>
</g>
</svg>
